<svg width="50" height="51" viewBox="0 0 50 51" fill="none" xmlns="http://www.w3.org/2000/svg">
<g clip-path="url(#clip0_175_338)">
<path d="M25 50.8184C38.8071 50.8184 50 39.6255 50 25.8184C50 12.0112 38.8071 0.818359 25 0.818359C11.1929 0.818359 0 12.0112 0 25.8184C0 39.6255 11.1929 50.8184 25 50.8184Z" fill="#F0F0F0"/>
<path d="M33.6959 25.8187C33.6959 27.9926 29.8027 33.4273 25.0003 33.4273C20.1979 33.4273 16.3047 27.9926 16.3047 25.8187C16.3047 21.0161 20.1979 17.123 25.0003 17.123C29.8027 17.123 33.6959 21.0161 33.6959 25.8187Z" fill="#D80027"/>
<path d="M33.6959 25.8184C33.6959 30.6209 29.8027 34.514 25.0003 34.514C20.1979 34.514 16.3047 30.6209 16.3047 25.8184" fill="#0052B4"/>
<path d="M34.2158 33.5049L36.5212 31.1995L38.0582 32.7364L35.7528 35.0418L34.2158 33.5049Z" fill="black"/>
<path d="M30.373 37.3477L32.6785 35.0422L34.2154 36.5792L31.91 38.8846L30.373 37.3477Z" fill="black"/>
<path d="M38.8271 38.1152L41.1326 35.8098L42.6695 37.3468L40.3641 39.6522L38.8271 38.1152Z" fill="black"/>
<path d="M34.9844 41.958L37.2898 39.6526L38.8268 41.1896L36.5213 43.495L34.9844 41.958Z" fill="black"/>
<path d="M36.5215 35.8105L38.8269 33.5051L40.3639 35.0421L38.0584 37.3475L36.5215 35.8105Z" fill="black"/>
<path d="M32.6797 39.6523L34.9851 37.3469L36.5221 38.8839L34.2167 41.1893L32.6797 39.6523Z" fill="black"/>
<path d="M38.8379 18.1367L32.6901 11.9889L34.2271 10.452L40.3749 16.5998L38.8379 18.1367Z" fill="black"/>
<path d="M32.6885 16.5996L30.3831 14.2942L31.92 12.7573L34.2254 15.0627L32.6885 16.5996Z" fill="black"/>
<path d="M36.5312 20.4434L34.2258 18.1379L35.7627 16.6011L38.0681 18.9065L36.5312 20.4434Z" fill="black"/>
<path d="M37.2988 11.9883L34.9934 9.68287L36.5304 8.1459L38.8358 10.4513L37.2988 11.9883Z" fill="black"/>
<path d="M41.1436 15.832L38.8381 13.5266L40.3751 11.9897L42.6805 14.2951L41.1436 15.832Z" fill="black"/>
<path d="M8.8623 35.8057L15.0101 41.9535L13.4731 43.4904L7.32534 37.3426L8.8623 35.8057Z" fill="black"/>
<path d="M15.0098 37.3418L17.3152 39.6472L15.7783 41.1841L13.4729 38.8787L15.0098 37.3418Z" fill="black"/>
<path d="M11.168 33.5L13.4734 35.8054L11.9364 37.3424L9.631 35.037L11.168 33.5Z" fill="black"/>
<path d="M13.4736 31.1943L19.6214 37.3421L18.0845 38.8791L11.9367 32.7313L13.4736 31.1943Z" fill="black"/>
<path d="M15.0098 9.67773L8.86197 15.8255L7.32501 14.2886L13.4728 8.14077L15.0098 9.67773Z" fill="black"/>
<path d="M17.3154 11.9834L11.1676 18.1312L9.63067 16.5942L15.7785 10.4464L17.3154 11.9834Z" fill="black"/>
<path d="M19.623 14.29L13.4753 20.4378L11.9384 18.9009L18.0861 12.7531L19.623 14.29Z" fill="black"/>
</g>
<defs>
<clipPath id="clip0_175_338">
<rect width="50" height="50" fill="white" transform="translate(0 0.818359)"/>
</clipPath>
</defs>
</svg>
